<mxfile host="app.diagrams.net" agent="Mozilla/5.0 (Macintosh; Intel Mac OS X 10_15_7) AppleWebKit/537.36 (KHTML, like Gecko) Chrome/127.0.0.0 Safari/537.36" version="24.7.7">
  <diagram name="第 1 页" id="Tc8IBC-T77jV4lN87S3w">
    <mxGraphModel dx="954" dy="606" grid="1" gridSize="10" guides="1" tooltips="1" connect="1" arrows="1" fold="1" page="1" pageScale="1" pageWidth="827" pageHeight="1169" math="0" shadow="0">
      <root>
        <mxCell id="0" />
        <mxCell id="1" parent="0" />
        <mxCell id="6f-PpkuftTgr0DdjllNO-33" value="" style="rounded=0;whiteSpace=wrap;html=1;dashed=1;dashPattern=12 12;strokeColor=#666666;fillColor=#f5f5f5;fontColor=#333333;" parent="1" vertex="1">
          <mxGeometry x="370" y="390" width="330" height="60" as="geometry" />
        </mxCell>
        <mxCell id="6f-PpkuftTgr0DdjllNO-27" value="" style="rounded=0;whiteSpace=wrap;html=1;dashed=1;dashPattern=12 12;strokeColor=#6c8ebf;fillColor=#dae8fc;" parent="1" vertex="1">
          <mxGeometry x="297" y="310" width="480" height="60" as="geometry" />
        </mxCell>
        <mxCell id="6f-PpkuftTgr0DdjllNO-21" value="" style="rounded=0;whiteSpace=wrap;html=1;dashed=1;dashPattern=12 12;strokeColor=#666666;fillColor=#f5f5f5;fontColor=#333333;" parent="1" vertex="1">
          <mxGeometry x="200" y="230" width="700" height="60" as="geometry" />
        </mxCell>
        <mxCell id="6f-PpkuftTgr0DdjllNO-1" value="Embedding" style="rounded=0;whiteSpace=wrap;html=1;" parent="1" vertex="1">
          <mxGeometry x="210" y="240" width="110" height="40" as="geometry" />
        </mxCell>
        <mxCell id="6f-PpkuftTgr0DdjllNO-2" value="BoundingBox" style="rounded=0;whiteSpace=wrap;html=1;" parent="1" vertex="1">
          <mxGeometry x="325" y="240" width="110" height="40" as="geometry" />
        </mxCell>
        <mxCell id="6f-PpkuftTgr0DdjllNO-4" value="Keypoints" style="rounded=0;whiteSpace=wrap;html=1;" parent="1" vertex="1">
          <mxGeometry x="553" y="240" width="110" height="40" as="geometry" />
        </mxCell>
        <mxCell id="6f-PpkuftTgr0DdjllNO-5" value="Location" style="rounded=0;whiteSpace=wrap;html=1;" parent="1" vertex="1">
          <mxGeometry x="667" y="240" width="110" height="40" as="geometry" />
        </mxCell>
        <mxCell id="6f-PpkuftTgr0DdjllNO-7" value="Shape" style="rounded=0;whiteSpace=wrap;html=1;" parent="1" vertex="1">
          <mxGeometry x="780" y="240" width="110" height="40" as="geometry" />
        </mxCell>
        <mxCell id="6f-PpkuftTgr0DdjllNO-10" value="&lt;font style=&quot;font-size: 19px;&quot;&gt;Input&lt;/font&gt;" style="text;html=1;align=center;verticalAlign=middle;resizable=0;points=[];autosize=1;strokeColor=none;fillColor=none;fontStyle=1;fontSize=17;" parent="1" vertex="1">
          <mxGeometry x="115" y="240" width="70" height="40" as="geometry" />
        </mxCell>
        <mxCell id="6f-PpkuftTgr0DdjllNO-20" value="Polygon" style="rounded=0;whiteSpace=wrap;html=1;" parent="1" vertex="1">
          <mxGeometry x="439" y="240" width="110" height="40" as="geometry" />
        </mxCell>
        <mxCell id="6f-PpkuftTgr0DdjllNO-23" value="&lt;font style=&quot;font-size: 19px;&quot;&gt;Algorithm&lt;/font&gt;" style="text;html=1;align=center;verticalAlign=middle;resizable=0;points=[];autosize=1;strokeColor=none;fillColor=none;fontStyle=1;fontSize=17;" parent="1" vertex="1">
          <mxGeometry x="100" y="320" width="100" height="40" as="geometry" />
        </mxCell>
        <mxCell id="6f-PpkuftTgr0DdjllNO-24" value="OneStage: Former" style="rounded=0;whiteSpace=wrap;html=1;" parent="1" vertex="1">
          <mxGeometry x="642" y="320" width="125" height="40" as="geometry" />
        </mxCell>
        <mxCell id="6f-PpkuftTgr0DdjllNO-25" value="Two-Stage: XGB + GraphMatching" style="rounded=0;whiteSpace=wrap;html=1;" parent="1" vertex="1">
          <mxGeometry x="442" y="320" width="190" height="40" as="geometry" />
        </mxCell>
        <mxCell id="6f-PpkuftTgr0DdjllNO-26" value="HandCraft-Rule" style="rounded=0;whiteSpace=wrap;html=1;" parent="1" vertex="1">
          <mxGeometry x="307" y="320" width="125" height="40" as="geometry" />
        </mxCell>
        <mxCell id="6f-PpkuftTgr0DdjllNO-29" value="&lt;font style=&quot;font-size: 19px;&quot;&gt;Output&lt;/font&gt;" style="text;html=1;align=center;verticalAlign=middle;resizable=0;points=[];autosize=1;strokeColor=none;fillColor=none;fontStyle=1;fontSize=17;" parent="1" vertex="1">
          <mxGeometry x="120" y="400" width="80" height="40" as="geometry" />
        </mxCell>
        <mxCell id="6f-PpkuftTgr0DdjllNO-30" value="Matching Results" style="rounded=0;whiteSpace=wrap;html=1;" parent="1" vertex="1">
          <mxGeometry x="380" y="400" width="140" height="40" as="geometry" />
        </mxCell>
        <mxCell id="6f-PpkuftTgr0DdjllNO-32" value="Prop&lt;font style=&quot;font-size: 11px;&quot;&gt;erty&lt;/font&gt;&lt;div style=&quot;&quot;&gt;&lt;font style=&quot;font-size: 10px;&quot;&gt;Location/Shape/Direction&lt;/font&gt;&lt;/div&gt;" style="rounded=0;whiteSpace=wrap;html=1;" parent="1" vertex="1">
          <mxGeometry x="530" y="400" width="160" height="40" as="geometry" />
        </mxCell>
      </root>
    </mxGraphModel>
  </diagram>
</mxfile>
